<svg width="42" height="42" viewBox="0 0 42 42" fill="none" xmlns="http://www.w3.org/2000/svg">
<path fill-rule="evenodd" clip-rule="evenodd" d="M19.1005 0.0785059C15.1449 0.431621 11.2985 1.96315 8.01147 4.49384C6.41123 5.7258 4.33307 8.04109 3.13214 9.92976C2.61348 10.7455 1.60385 12.8124 1.24218 13.7988C0.837783 14.9019 0.406775 16.5875 0.19468 17.8954C-0.0648934 19.4962 -0.0648934 22.5356 0.19468 24.1365C0.561698 26.3995 1.14229 28.229 2.13606 30.2544C3.22184 32.4671 4.35082 34.0356 6.15872 35.8431C7.9667 37.6504 9.53564 38.7791 11.749 39.8646C13.775 40.858 15.605 41.4385 17.8687 41.8054C19.47 42.0649 22.5103 42.0649 24.1116 41.8054C25.4199 41.5933 27.106 41.1625 28.2093 40.7582C29.1961 40.3966 31.2636 39.3873 32.0795 38.8688C34.7174 37.1925 37.1714 34.7392 38.8482 32.1021C39.3668 31.2864 40.3765 29.2195 40.7381 28.233C42.1347 24.4235 42.381 20.1358 41.4323 16.1503V16.1503C41.332 15.7291 40.9556 15.4318 40.5226 15.4318H39.3313C37.7833 15.4318 37.4094 15.4529 37.4422 15.5384C37.718 16.2568 38.0612 17.8741 38.2039 19.1272C38.7972 24.3373 36.9789 29.4926 33.224 33.2463C28.7156 37.7535 22.2799 39.4105 16.1437 37.644C10.5535 36.0347 5.96699 31.4496 4.35723 25.861C2.59023 19.7266 4.24773 13.2927 8.75626 8.78558C12.5108 5.03214 17.6587 3.21712 22.8795 3.80617C23.9791 3.93025 25.0831 4.15107 25.9647 4.4233C26.2653 4.51609 26.5256 4.59197 26.5435 4.59197C26.5613 4.59197 26.5759 3.72766 26.5759 2.67136V1.48957C26.5759 1.05643 26.2785 0.679963 25.8572 0.579683V0.579683C23.6583 0.05658 21.3032 -0.118089 19.1005 0.0785059ZM33.476 3.6476V3.6476C33.476 4.75876 32.5746 5.65953 31.4635 5.65953V5.65953H30.888C30.0944 5.65953 29.4509 6.30294 29.4509 7.09663V7.09663V7.09663C29.4509 7.89031 30.0944 8.53372 30.888 8.53372H31.4635V8.53372C32.5746 8.53372 33.476 9.4345 33.476 10.5457V10.5457V11.1201C33.476 11.914 34.1196 12.5576 34.9135 12.5576V12.5576V12.5576C35.7074 12.5576 36.351 11.914 36.351 11.1201V10.5457V10.5457C36.351 9.4345 37.2524 8.53372 38.3635 8.53372V8.53372H38.939C39.7326 8.53372 40.376 7.89031 40.376 7.09663V7.09663V7.09663C40.376 6.30294 39.7326 5.65953 38.939 5.65953H38.3635V5.65953C37.2524 5.65953 36.351 4.75876 36.351 3.6476V3.6476V3.07317C36.351 2.27926 35.7074 1.63566 34.9135 1.63566V1.63566V1.63566C34.1196 1.63566 33.476 2.27926 33.476 3.07317V3.6476ZM23.9473 13.8347C22.3977 14.1181 21.2432 14.8561 20.7151 15.901C19.9666 17.3822 20.4229 19.1251 21.8305 20.1611L21.8877 20.2031C22.0802 20.3448 22.0532 20.6403 21.8383 20.7449V20.7449C20.7202 21.2887 19.8467 22.466 19.6675 23.6705C19.3534 25.7818 20.7703 27.507 23.3027 28.0965C24.4202 28.3566 26.6238 28.3542 27.6816 28.0916C28.709 27.8366 29.5143 27.4279 30.1369 26.8456C31.0135 26.026 31.3954 25.0761 31.3202 23.9027C31.2716 23.1441 31.0333 22.4852 30.5955 21.8995C30.255 21.4439 29.373 20.7177 29.0608 20.6359C28.9591 20.6093 28.8759 20.5625 28.8759 20.5318C28.8759 20.5012 29.0632 20.3364 29.2921 20.1656C29.521 19.9947 29.8493 19.6368 30.0217 19.3703C31.0063 17.8472 30.6755 15.8777 29.2505 14.7786C28.0928 13.8857 25.8506 13.4866 23.9473 13.8347ZM10.6401 15.3086V15.4314C10.6401 16.1573 11.2285 16.7457 11.9544 16.7457V16.7457V16.7457C12.6802 16.7457 13.2687 17.3341 13.2687 18.06V22.453V26.3532C13.2687 27.3513 14.0777 28.1604 15.0758 28.1604V28.1604V28.1604C16.0739 28.1604 16.883 27.3513 16.883 26.3532V21.0159V16.993C16.883 15.269 15.4855 13.8715 13.7615 13.8715V13.8715H12.0772C11.2835 13.8715 10.6401 14.5149 10.6401 15.3086V15.3086ZM26.6944 16.3328C27.1468 16.5517 27.3653 16.8408 27.4915 17.3873C27.6248 17.9648 27.4782 18.4603 27.0627 18.8355C26.6818 19.1795 26.2392 19.3081 25.4469 19.305C24.1244 19.2998 23.4545 18.7733 23.4545 17.7391C23.4545 16.9056 23.8732 16.3864 24.7277 16.1603C25.1842 16.0396 26.2885 16.1364 26.6944 16.3328ZM26.9723 22.2652C27.6959 22.6375 28.035 23.3595 27.8788 24.1953C27.7695 24.7801 27.4811 25.1516 26.9291 25.4189C26.4934 25.6299 26.3721 25.6499 25.5081 25.6527C24.656 25.6554 24.5182 25.6345 24.1028 25.4398C23.1274 24.9826 22.7762 23.9484 23.2696 22.9866C23.4488 22.6373 23.5843 22.497 23.9243 22.3083C24.6688 21.8953 26.2109 21.8735 26.9723 22.2652Z" fill="#0B1F1B"/>
</svg>
