<svg width="109" height="109" viewBox="0 0 109 109" fill="none" xmlns="http://www.w3.org/2000/svg">
<circle cx="54.5" cy="54.5" r="54.5" fill="#2B0224"/>
<path fill-rule="evenodd" clip-rule="evenodd" d="M42.0132 32.0355C39.9124 32.2684 37.4747 32.9961 35.5338 33.9696C30.2323 36.6286 26.3723 41.5143 24.9474 47.3686C24.4748 49.3105 22 67.3135 22 68.8099C22 69.8697 22.4416 71.594 23.0295 72.831C23.8179 74.4892 25.5558 76.264 27.1647 77.0543C29.7666 78.3324 32.4715 78.3147 35.1144 77.0028C36.3924 76.3683 37.7397 75.222 38.4822 74.1377C38.7304 73.7753 40.2624 70.8872 41.8869 67.7197L44.8405 61.9605H54.0212H63.2018L66.1555 67.7197C67.78 70.8872 69.312 73.7753 69.5602 74.1377C71.2433 76.5959 74.4634 78.1555 77.4653 77.9663C79.8329 77.817 81.7051 76.9101 83.4167 75.0831C84.7238 73.6879 85.485 72.1964 85.849 70.3173C86.1546 68.739 86.1219 68.4003 84.5384 56.7772C83.4077 48.4773 83.0746 46.7351 82.2003 44.5469C80.014 39.0751 75.3036 34.5957 69.9576 32.9048C67.0657 31.9901 67.8105 32.0338 54.593 32.0057C47.9493 31.9914 42.2884 32.005 42.0132 32.0355ZM68.9609 39.1202C71.2176 40.1528 71.347 43.3922 69.1797 44.5989C67.8541 45.3369 66.1499 44.9187 65.2558 43.636C64.6821 42.8128 64.5688 41.4848 65.0003 40.6396C65.7871 39.0981 67.4873 38.4459 68.9609 39.1202ZM42.5851 43.459V45.7627H44.8723H47.1595V48.0664V50.3701H44.8723H42.5851V52.6737V54.9774H40.2978H38.0106V52.6737V50.3701H35.7234H33.4361V48.0664V45.7627H35.7234H38.0106V43.459V41.1553H40.2978H42.5851V43.459ZM63.3427 45.5575C65.6385 47.181 64.7324 50.8279 61.976 51.0581C61.0218 51.1379 60.3012 50.9108 59.6331 50.3201C57.9943 48.8708 58.3641 46.3809 60.3826 45.2737C60.6878 45.1063 61.0879 45.0507 61.7702 45.0809C62.5659 45.1162 62.8333 45.1973 63.3427 45.5575ZM75.148 45.3175C77.1251 46.3418 77.4843 48.8802 75.8561 50.3201C73.8979 52.0517 70.8552 50.6934 70.8383 48.0799C70.83 46.8146 71.4959 45.7571 72.6059 45.2722C73.3141 44.9629 74.5045 44.9842 75.148 45.3175ZM69.2393 51.5724C70.8751 52.4677 71.2447 54.7878 69.9822 56.2362C68.1723 58.3124 64.7426 57.0179 64.7426 54.2587C64.7426 51.8323 67.1196 50.4122 69.2393 51.5724Z" fill="#EDCE48"/>
</svg>
