<svg width="109" height="109" viewBox="0 0 109 109" fill="none" xmlns="http://www.w3.org/2000/svg">
<circle cx="54.5" cy="54.5" r="54.5" fill="#2B0224"/>
<path fill-rule="evenodd" clip-rule="evenodd" d="M44.0209 28.0526C38.2862 30.278 33.2354 32.2375 32.797 32.4073L32 32.7159L32.0457 45.4208C32.0842 56.1516 32.1201 58.3412 32.2766 59.5138C33.4881 68.5934 37.1773 74.4387 45.0167 79.6996C47.1751 81.148 48.9593 82.1724 52.1538 83.7973L54.518 85L57.0602 83.7029C61.137 81.6226 64.1808 79.7526 66.5732 77.858C72.2071 73.3965 75.3307 68.1197 76.4603 61.1558C76.9571 58.0933 77 56.7614 77 44.4099V32.7075L76.0921 32.352C72.7842 31.0569 54.5124 23.9946 54.4834 24C54.4637 24.0037 49.7556 25.8273 44.0209 28.0526ZM65.9002 45.0511L68.5641 47.762L59.6608 56.8153L50.7574 65.8687L45.1339 60.1509L39.5103 54.4331L42.3218 51.5741L45.1333 48.7151L48.0338 51.6629L50.9343 54.6106L56.9668 48.4754C60.2846 45.101 63.0525 42.3402 63.1177 42.3402C63.1829 42.3402 64.435 43.5601 65.9002 45.0511Z" fill="#EDCE48"/>
</svg>
