<svg width="109" height="109" viewBox="0 0 109 109" fill="none" xmlns="http://www.w3.org/2000/svg">
<circle cx="54.5" cy="54.5" r="54.5" fill="#2B0224"/>
<path fill-rule="evenodd" clip-rule="evenodd" d="M40.5734 32.1312C34.9655 33.0595 30.9868 38.1694 31.2965 44.0459C31.4605 47.1573 32.6578 49.7793 34.8805 51.8951C40.2102 56.9686 48.4836 55.396 51.9181 48.6566C54.3328 43.9182 53.0028 37.714 48.8607 34.3955C46.4757 32.4846 43.4435 31.6562 40.5734 32.1312ZM65.8916 33.7153C63.3588 34.0478 60.9265 35.5847 59.4385 37.7929C56.1811 42.627 57.7183 49.3509 62.7104 52.1046C65.0658 53.4038 67.9473 53.6027 70.3771 52.6335C71.9125 52.0211 73.5085 50.7972 74.4753 49.4907C76.1615 47.212 76.8207 44.3304 76.289 41.5625C75.3188 36.5123 70.7653 33.0756 65.8916 33.7153ZM65.2028 55.2184C63.2079 55.3934 61.0653 55.9925 59.3065 56.8672C58.4274 57.3044 56.6405 58.4652 56.0003 59.015L55.6149 59.3459L56.4134 59.9828C57.3416 60.7235 58.9493 62.4391 59.8034 63.6008C61.8659 66.4056 63.1285 69.4457 63.646 72.8533C63.7426 73.4894 63.822 74.1789 63.8224 74.3857L63.8231 74.7616H73.9115H84L83.9348 72.0148C83.8461 68.277 83.5519 66.911 82.2718 64.2947C79.9204 59.4886 75.4238 56.2146 69.9722 55.3394C68.9048 55.1681 66.4783 55.1064 65.2028 55.2184ZM40.2001 58.5743C34.1579 59.0641 28.7676 62.6115 26.0098 67.9132C24.5918 70.6388 24 73.1992 24 76.6076V78H42.2132H60.4264L60.4263 76.9302C60.4258 71.2524 58.6149 66.8496 54.8112 63.2782C50.9455 59.6487 46.1181 58.0945 40.2001 58.5743Z" fill="#EDCE48"/>
</svg>
