<svg width="64" height="46" viewBox="0 0 64 46" fill="none" xmlns="http://www.w3.org/2000/svg">
<path fill-rule="evenodd" clip-rule="evenodd" d="M20.0132 0.0354841C17.9124 0.268444 15.4747 0.99612 13.5338 1.96957C8.23231 4.62859 4.37232 9.51427 2.94738 15.3686C2.47478 17.3105 0 35.3135 0 36.8099C0 37.8697 0.441578 39.594 1.02954 40.831C1.81792 42.4892 3.55578 44.264 5.1647 45.0543C7.76657 46.3324 10.4715 46.3147 13.1144 45.0028C14.3924 44.3683 15.7397 43.222 16.4822 42.1377C16.7304 41.7753 18.2624 38.8872 19.8869 35.7197L22.8405 29.9605H32.0212H41.2018L44.1555 35.7197C45.78 38.8872 47.312 41.7753 47.5602 42.1377C49.2433 44.5959 52.4634 46.1555 55.4653 45.9663C57.8329 45.817 59.7051 44.9101 61.4167 43.0831C62.7238 41.6879 63.485 40.1964 63.849 38.3173C64.1546 36.739 64.1219 36.4003 62.5384 24.7772C61.4077 16.4773 61.0746 14.7351 60.2003 12.5469C58.014 7.0751 53.3036 2.59574 47.9576 0.904836C45.0657 -0.0098693 45.8105 0.0337574 32.593 0.00568126C25.9493 -0.00857277 20.2884 0.00496037 20.0132 0.0354841ZM46.9609 7.12017C49.2176 8.1528 49.347 11.3922 47.1797 12.5989C45.8541 13.3369 44.1499 12.9187 43.2558 11.636C42.6821 10.8128 42.5688 9.48476 43.0003 8.63959C43.7871 7.09814 45.4873 6.44591 46.9609 7.12017ZM20.5851 11.459V13.7627H22.8723H25.1595V16.0664V18.3701H22.8723H20.5851V20.6737V22.9774H18.2978H16.0106V20.6737V18.3701H13.7234H11.4361V16.0664V13.7627H13.7234H16.0106V11.459V9.15533H18.2978H20.5851V11.459ZM41.3427 13.5575C43.6385 15.181 42.7324 18.8279 39.976 19.0581C39.0218 19.1379 38.3012 18.9108 37.6331 18.3201C35.9943 16.8708 36.3641 14.3809 38.3826 13.2737C38.6878 13.1063 39.0879 13.0507 39.7702 13.0809C40.5659 13.1162 40.8333 13.1973 41.3427 13.5575ZM53.148 13.3175C55.1251 14.3418 55.4843 16.8802 53.8561 18.3201C51.8979 20.0517 48.8552 18.6934 48.8383 16.0799C48.83 14.8146 49.4959 13.7571 50.6059 13.2722C51.3141 12.9629 52.5045 12.9842 53.148 13.3175ZM47.2393 19.5724C48.8751 20.4677 49.2447 22.7878 47.9822 24.2362C46.1723 26.3124 42.7426 25.0179 42.7426 22.2587C42.7426 19.8323 45.1196 18.4122 47.2393 19.5724Z" fill="#09201C"/>
</svg>
