<svg width="218" height="75" viewBox="0 0 218 75" fill="none" xmlns="http://www.w3.org/2000/svg">
<path d="M98.9904 42.9772C101.788 42.9772 104.26 43.5762 106.405 44.7741C108.55 45.9721 110.206 47.6281 111.371 49.7421C112.537 51.8561 113.12 54.252 113.12 56.9297C113.12 59.6779 112.234 62.2147 110.462 64.5401C108.713 66.8656 106.533 68.7095 103.922 70.0718C101.31 71.4107 98.8388 72.0801 96.5071 72.0801C93.7092 72.0801 91.2376 71.4929 89.0925 70.3185C86.9707 69.1205 85.3152 67.4645 84.1261 65.3505C82.9602 63.2365 82.3773 60.8406 82.3773 58.1629C82.3773 55.4147 83.2517 52.8778 85.0004 50.5524C86.7725 48.2035 88.9642 46.3596 91.5757 45.0208C94.1871 43.6584 96.6587 42.9772 98.9904 42.9772ZM96.9618 47.6985C95.796 47.6985 94.7234 48.0861 93.7441 48.8612C92.7882 49.6129 92.0187 50.6581 91.4358 51.997C90.8762 53.3359 90.5964 54.8274 90.5964 56.4717C90.5964 58.4682 90.8879 60.2886 91.4708 61.9329C92.0537 63.5771 92.9397 64.8925 94.1289 65.879C95.3413 66.8656 96.8103 67.3588 98.5357 67.3588C99.7015 67.3588 100.762 66.983 101.718 66.2314C102.698 65.4562 103.467 64.3992 104.027 63.0603C104.61 61.7215 104.901 60.2299 104.901 58.5857C104.901 56.5656 104.61 54.7335 104.027 53.0892C103.444 51.445 102.558 50.1414 101.369 49.1783C100.179 48.1918 98.7106 47.6985 96.9618 47.6985Z" fill="#D4F0DC"/>
<path d="M139.824 71.3402H131.08V60.4531C131.08 59.443 130.929 58.7266 130.626 58.3038C130.346 57.881 129.844 57.6696 129.122 57.6696C128.119 57.6696 127.14 57.9162 126.184 58.4095V67.5702L129.332 68.5568L127.933 71.3755H116.076V68.8739L119.189 66.1257V59.2551L116.076 57.2116V54.71L124.155 51.5742L125.624 55.3794L129.576 52.1732C130.206 51.9853 130.964 51.8913 131.85 51.8913C133.762 51.8913 135.277 52.3846 136.396 53.3711C137.516 54.3342 138.075 55.6496 138.075 57.3173V67.5702L141.223 68.5215L139.824 71.3402Z" fill="#D4F0DC"/>
<path d="M153.772 71.3755H141.915V68.8739L145.028 66.1257V48.2975L141.915 46.2539V43.7524L149.295 40.6166H152.023V67.5702L155.171 68.5568L153.772 71.3755Z" fill="#D4F0DC"/>
<path d="M168.44 71.3755H156.584V68.8739L159.697 66.1257V59.2551L156.584 57.2116V54.71L163.964 51.5742H166.692V67.5702L169.839 68.5568L168.44 71.3755ZM163.229 40.8984C164.395 40.8984 165.351 41.2625 166.097 41.9907C166.867 42.7188 167.251 43.6232 167.251 44.7037C167.251 45.4553 166.971 46.16 166.412 46.8177C165.876 47.4754 165.199 48.0039 164.383 48.4032C163.567 48.8025 162.775 49.0022 162.005 49.0022C160.863 49.0022 159.907 48.6381 159.137 47.9099C158.368 47.1818 157.983 46.2892 157.983 45.2322C157.983 44.4805 158.251 43.7759 158.787 43.1182C159.347 42.437 160.035 41.8967 160.851 41.4974C161.667 41.0981 162.46 40.8984 163.229 40.8984Z" fill="#D4F0DC"/>
<path d="M194.984 71.3402H186.241V60.4531C186.241 59.443 186.089 58.7266 185.786 58.3038C185.506 57.881 185.005 57.6696 184.282 57.6696C183.28 57.6696 182.3 57.9162 181.344 58.4095V67.5702L184.492 68.5568L183.093 71.3755H171.237V68.8739L174.349 66.1257V59.2551L171.237 57.2116V54.71L179.316 51.5742L180.785 55.3794L184.737 52.1732C185.366 51.9853 186.124 51.8913 187.01 51.8913C188.922 51.8913 190.438 52.3846 191.557 53.3711C192.676 54.3342 193.236 55.6496 193.236 57.3173V67.5702L196.383 68.5215L194.984 71.3402Z" fill="#D4F0DC"/>
<path d="M209.85 51.8913C212.438 51.8913 214.443 52.8661 215.865 54.8157C217.288 56.7653 217.964 59.537 217.894 63.1308H205.548C205.827 64.2113 206.294 65.0687 206.947 65.7029C207.599 66.3136 208.427 66.6189 209.43 66.6189C211.085 66.6189 213.557 66.0082 216.844 64.7868L217.894 67.1827L213.102 71.0584C211.517 71.5046 209.616 71.7278 207.401 71.7278C205.583 71.7278 203.95 71.3285 202.505 70.5299C201.083 69.7077 199.963 68.592 199.147 67.1827C198.354 65.7498 197.958 64.1643 197.958 62.4261C197.958 60.547 198.576 58.7971 199.812 57.1763C201.048 55.5556 202.598 54.2754 204.463 53.3359C206.329 52.3728 208.136 51.8913 209.884 51.8913H209.85ZM207.996 56.6126C207.133 56.6126 206.48 56.918 206.037 57.5287C205.594 58.1159 205.349 59.032 205.303 60.2769H211.074C210.957 59.032 210.654 58.1159 210.164 57.5287C209.675 56.918 208.94 56.6126 207.961 56.6126H207.996Z" fill="#D4F0DC"/>
<path d="M29.6323 25.3124L30.5766 27.7788L24.1412 31.7601C22.9055 32.089 21.7163 32.3004 20.5738 32.3943C19.4546 32.4883 18.2422 32.5353 16.9364 32.5353C13.9986 32.5353 11.3988 31.9363 9.13706 30.7384C6.87535 29.5404 5.11495 27.8962 3.85586 25.8057C2.62009 23.6917 2.0022 21.2958 2.0022 18.618C2.0022 15.8698 2.9232 13.333 4.76521 11.0076C6.63053 8.65868 8.92721 6.81479 11.6552 5.47592C14.4066 4.11356 17.018 3.43237 19.4896 3.43237C21.0285 3.43237 22.8239 3.60854 24.8757 3.96088C26.9509 4.31321 28.4665 4.68904 29.4224 5.08835V14.39H24.9457C23.9897 12.229 22.8705 10.6552 21.5881 9.66871C20.329 8.65868 18.9533 8.15367 17.4611 8.15367C16.132 8.15367 14.9079 8.54124 13.7887 9.31637C12.6928 10.068 11.8185 11.1133 11.1656 12.4522C10.536 13.791 10.2213 15.2826 10.2213 16.9268C10.2213 18.9234 10.536 20.7438 11.1656 22.388C11.7951 24.0088 12.7628 25.3124 14.0685 26.2989C15.3742 27.2855 16.9831 27.7788 18.895 27.7788H19.9792C20.8886 27.7788 21.5997 27.7553 22.1127 27.7083V21.6833L16.3768 20.3797L17.7758 17.561H32.9549V20.0626L29.6323 22.987V25.3124Z" fill="#D4F0DC"/>
<path d="M56.3866 31.8658H47.6429V28.8005L43.6908 31.9363C43.2245 32.1242 42.6415 32.2182 41.942 32.2182C39.5638 32.2182 37.8383 31.6427 36.7658 30.4917C35.7165 29.3173 35.1919 27.9079 35.1919 26.2637C35.1919 25.3241 35.4601 24.4081 35.9963 23.5155C36.5326 22.5994 37.3137 21.7538 38.3396 20.9787H47.6429C47.573 19.9452 47.2232 19.17 46.5937 18.6533C45.9642 18.113 45.1714 17.8429 44.2154 17.8429C42.6066 17.8429 40.2516 18.3362 37.1505 19.3227L36.1013 16.9268L40.8928 13.0511C42.1752 12.6048 43.7141 12.3817 45.5095 12.3817C48.4007 12.3817 50.6508 13.0276 52.2596 14.3195C53.8685 15.5879 54.6729 17.4553 54.6729 19.9217V27.814L57.7856 29.0472L56.3866 31.8658ZM44.0755 26.4046C45.1014 26.4046 46.2906 26.0053 47.6429 25.2067V23.8326H42.3268C42.2102 24.044 42.1286 24.2319 42.0819 24.3963C42.0353 24.5373 42.012 24.7252 42.012 24.9601C42.012 25.4064 42.1869 25.7587 42.5366 26.0171C42.9097 26.2755 43.4343 26.4046 44.1105 26.4046H44.0755Z" fill="#D4F0DC"/>
<path d="M93.5441 31.8658H84.8004V20.274C84.8004 19.4989 84.6838 18.9586 84.4506 18.6533C84.2175 18.3479 83.7978 18.1952 83.1915 18.1952C82.3055 18.1952 81.4311 18.4301 80.5684 18.8999V28.1311L83.3664 29.0472L81.9674 31.8658H73.5735V20.274C73.5735 19.4989 73.4569 18.9586 73.2237 18.6533C72.9906 18.3479 72.5709 18.1952 71.9646 18.1952C71.0786 18.1952 70.2042 18.4301 69.3415 18.8999V28.1311L72.1395 29.0472L70.7405 31.8658H59.2338V29.3643L62.3466 26.616V19.7455L59.2338 17.702V15.2004L67.313 12.0646L68.7819 15.8698L72.7341 12.6636C73.247 12.4756 73.8883 12.3817 74.6577 12.3817C76.0334 12.3817 77.1992 12.6753 78.1552 13.2625C79.1112 13.8263 79.7873 14.6366 80.1837 15.6936L83.926 12.6636C84.439 12.4756 85.0802 12.3817 85.8496 12.3817C87.645 12.3817 89.0673 12.875 90.1166 13.8615C91.1891 14.8245 91.7254 16.1399 91.7254 17.8077V28.0606L94.9431 29.0472L93.5441 31.8658Z" fill="#D4F0DC"/>
<path d="M108.332 12.3817C110.921 12.3817 112.926 13.3565 114.348 15.3061C115.77 17.2557 116.447 20.0274 116.377 23.6212H104.031C104.31 24.7017 104.777 25.559 105.43 26.1932C106.082 26.804 106.91 27.1093 107.913 27.1093C109.568 27.1093 112.04 26.4986 115.327 25.2772L116.377 27.673L111.585 31.5487C110 31.995 108.099 32.2182 105.884 32.2182C104.065 32.2182 102.433 31.8189 100.988 31.0202C99.5654 30.1981 98.4462 29.0824 97.6301 27.673C96.8374 26.2402 96.441 24.6547 96.441 22.9165C96.441 21.0374 97.0589 19.2875 98.2946 17.6667C99.5304 16.046 101.081 14.7658 102.946 13.8263C104.812 12.8632 106.619 12.3817 108.367 12.3817H108.332ZM106.479 17.103C105.616 17.103 104.963 17.4083 104.52 18.0191C104.077 18.6063 103.832 19.5224 103.786 20.7673H109.557C109.44 19.5224 109.137 18.6063 108.647 18.0191C108.158 17.4083 107.423 17.103 106.444 17.103H106.479Z" fill="#D4F0DC"/>
<path fill-rule="evenodd" clip-rule="evenodd" d="M16.8921 38.6548C9.73577 39.3297 3.45402 44.0483 1.07304 50.537C-0.663973 55.2708 -0.272848 60.7686 2.10643 65.0666C4.77093 69.8798 9.36222 73.1862 15.0421 74.382C16.7319 74.7377 20.1542 74.7464 21.9306 74.3995C25.7218 73.6593 29.0591 71.9549 31.6191 69.4513L32.625 68.4675H39.4699H46.315L47.4057 69.5124C50.0053 72.0024 53.2859 73.6697 57.0206 74.3988C58.8016 74.7466 62.2216 74.7381 63.9135 74.382C72.8909 72.492 78.9449 65.3518 78.9449 56.6539C78.9449 48.0744 73.105 41.0588 64.2218 38.9667C62.8412 38.6415 62.7202 38.6398 40.1715 38.6183C27.707 38.6063 17.2313 38.6227 16.8921 38.6548ZM60.8586 47.3871C62.7602 48.4759 62.98 51.0165 61.2997 52.4848C60.5711 53.1213 60.1575 53.2786 59.2113 53.2786C58.2652 53.2786 57.8516 53.1213 57.123 52.4848C54.1805 49.9137 57.4586 45.4401 60.8586 47.3871ZM19.246 48.7599C19.8819 49.0243 20.3805 49.4443 20.8766 50.1334C21.137 50.495 21.2246 50.8896 21.2854 51.9745L21.363 53.3553L22.6734 53.4395C24.1542 53.5345 24.7061 53.7648 25.436 54.5919C26.0611 55.3005 26.2193 55.7169 26.2193 56.6539C26.2193 57.5909 26.0611 58.0072 25.436 58.7159C24.7061 59.543 24.1542 59.7733 22.6734 59.8683L21.363 59.9525L21.2854 61.3333C21.2246 62.4182 21.137 62.8128 20.8766 63.1744C19.6121 64.9307 17.7269 65.2808 16.0813 64.0649C15.335 63.5135 14.9582 62.646 14.8378 61.202L14.7338 59.9525L13.5004 59.8608C11.7073 59.7273 11.0756 59.3971 10.3919 58.236C9.61197 56.9116 9.96101 55.0274 11.148 54.154C11.8653 53.6261 12.1186 53.55 13.5004 53.447L14.7338 53.3553L14.8378 52.1058C14.9032 51.323 15.0609 50.6245 15.2604 50.2353C15.981 48.8297 17.7971 48.1574 19.246 48.7599ZM53.8939 53.7181C54.5573 54.0181 55.4416 54.9174 55.6758 55.5302C55.7549 55.7373 55.8196 56.243 55.8196 56.6539C55.8196 57.5955 55.6616 58.0071 55.022 58.7322C53.0498 60.9674 49.4442 59.6357 49.4486 56.6735C49.4522 54.3257 51.794 52.7687 53.8939 53.7181ZM67.3191 53.8369C67.6553 54.0079 68.1337 54.4544 68.4007 54.8461C70.63 58.1159 66.1122 61.7131 63.4539 58.7848C62.7696 58.031 62.6031 57.614 62.6031 56.6539C62.6031 55.7123 62.7611 55.3007 63.4007 54.5756C64.4108 53.4308 65.9513 53.1403 67.3191 53.8369ZM60.3496 60.1757C61.0111 60.4261 61.9563 61.3981 62.2289 62.1084C62.7238 63.398 62.2466 64.9575 61.1133 65.7544C59.9111 66.5998 58.6041 66.6154 57.3948 65.7989C55.3386 64.4105 55.6095 61.4513 57.9009 60.2696C58.418 60.003 59.7571 59.9516 60.3496 60.1757Z" fill="#D4F0DC"/>
<path fill-rule="evenodd" clip-rule="evenodd" d="M194.772 35.9996C201.928 35.3247 208.21 30.6061 210.591 24.1174C212.328 19.3836 211.937 13.8858 209.558 9.58783C206.893 4.77461 202.302 1.46817 196.622 0.272384C194.932 -0.0832528 191.51 -0.0920003 189.733 0.254891C185.942 0.995161 182.605 2.69955 180.045 5.20312L179.039 6.18688L172.194 6.18687L165.349 6.18687L164.258 5.14206C161.659 2.65199 158.378 0.984727 154.643 0.255656C152.862 -0.0921564 149.442 -0.083717 147.75 0.27238C138.773 2.16241 132.719 9.3026 132.719 18.0005C132.719 26.58 138.559 33.5956 147.442 35.6877C148.823 36.013 148.944 36.0146 171.492 36.0361C183.957 36.0481 194.433 36.0317 194.772 35.9996ZM150.805 27.2673C148.904 26.1785 148.684 23.6379 150.364 22.1697C151.093 21.5331 151.506 21.3758 152.453 21.3758C153.399 21.3758 153.812 21.5331 154.541 22.1697C157.483 24.7407 154.205 29.2143 150.805 27.2673ZM192.418 25.8945C191.782 25.6301 191.283 25.2101 190.787 24.521C190.527 24.1594 190.439 23.7648 190.378 22.68L190.301 21.2991L188.991 21.2149C187.51 21.1199 186.958 20.8896 186.228 20.0625C185.603 19.3539 185.445 18.9375 185.445 18.0005C185.445 17.0636 185.603 16.6472 186.228 15.9385C186.958 15.1114 187.51 14.8811 188.991 14.7861L190.301 14.7019L190.378 13.3211C190.439 12.2362 190.527 11.8416 190.787 11.48C192.052 9.72376 193.937 9.37365 195.583 10.5895C196.329 11.1409 196.706 12.0084 196.826 13.4524L196.93 14.7019L198.164 14.7937C199.957 14.9271 200.588 15.2573 201.272 16.4184C202.052 17.7428 201.703 19.627 200.516 20.5004C199.799 21.0283 199.545 21.1044 198.164 21.2074L196.93 21.2991L196.826 22.5486C196.761 23.3314 196.603 24.0299 196.404 24.4192C195.683 25.8247 193.867 26.497 192.418 25.8945ZM157.77 20.9363C157.107 20.6363 156.222 19.737 155.988 19.1242C155.909 18.9171 155.844 18.4114 155.844 18.0005C155.844 17.059 156.002 16.6473 156.642 15.9222C158.614 13.687 162.22 15.0187 162.215 17.9809C162.212 20.3287 159.87 21.8857 157.77 20.9363ZM144.345 20.8175C144.009 20.6465 143.53 20.2 143.263 19.8083C141.034 16.5385 145.552 12.9414 148.21 15.8696C148.894 16.6234 149.061 17.0404 149.061 18.0005C149.061 18.9421 148.903 19.3537 148.263 20.0788C147.253 21.2236 145.713 21.5141 144.345 20.8175ZM151.314 14.4787C150.653 14.2283 149.708 13.2563 149.435 12.546C148.94 11.2565 149.417 9.6969 150.551 8.90002C151.753 8.05465 153.06 8.03901 154.269 8.85553C156.325 10.2439 156.054 13.2031 153.763 14.3848C153.246 14.6514 151.907 14.7028 151.314 14.4787Z" fill="#D4F0DC"/>
</svg>
