<svg width="45" height="61" viewBox="0 0 45 61" fill="none" xmlns="http://www.w3.org/2000/svg">
<path fill-rule="evenodd" clip-rule="evenodd" d="M12.0209 4.05263C6.28618 6.27796 1.2354 8.23749 0.797004 8.40726L0 8.71594L0.0456899 21.4208C0.0842338 32.1516 0.120083 34.3412 0.276602 35.5138C1.4881 44.5934 5.17731 50.4387 13.0167 55.6996C15.1751 57.148 16.9593 58.1724 20.1538 59.7973L22.518 61L25.0602 59.7029C29.137 57.6226 32.1808 55.7526 34.5732 53.858C40.2071 49.3965 43.3307 44.1197 44.4603 37.1558C44.9571 34.0933 45 32.7614 45 20.4099V8.70748L44.0921 8.35198C40.7842 7.05686 22.5124 -0.00535804 22.4834 3.05068e-06C22.4637 0.00369624 17.7556 1.8273 12.0209 4.05263ZM33.9002 21.0511L36.5641 23.762L27.6608 32.8153L18.7574 41.8687L13.1339 36.1509L7.51033 30.4331L10.3218 27.5741L13.1333 24.7151L16.0338 27.6629L18.9343 30.6106L24.9668 24.4754C28.2846 21.101 31.0525 18.3402 31.1177 18.3402C31.1829 18.3402 32.435 19.5601 33.9002 21.0511Z" fill="#09201C"/>
</svg>
