<svg width="60" height="46" viewBox="0 0 60 46" fill="none" xmlns="http://www.w3.org/2000/svg">
<path fill-rule="evenodd" clip-rule="evenodd" d="M16.5734 0.131193C10.9655 1.05945 6.98684 6.16937 7.29652 12.0459C7.4605 15.1573 8.65777 17.7793 10.8805 19.8951C16.2102 24.9686 24.4836 23.396 27.9181 16.6566C30.3328 11.9182 29.0028 5.71404 24.8607 2.39551C22.4757 0.484639 19.4435 -0.343807 16.5734 0.131193ZM41.8916 1.71534C39.3588 2.04785 36.9265 3.58469 35.4385 5.79291C32.1811 10.627 33.7183 17.3509 38.7104 20.1046C41.0658 21.4038 43.9473 21.6027 46.3771 20.6335C47.9125 20.0211 49.5085 18.7972 50.4753 17.4907C52.1615 15.212 52.8207 12.3304 52.289 9.5625C51.3188 4.51225 46.7653 1.07564 41.8916 1.71534ZM41.2028 23.2184C39.2079 23.3934 37.0653 23.9925 35.3065 24.8672C34.4274 25.3044 32.6405 26.4652 32.0003 27.015L31.6149 27.3459L32.4134 27.9828C33.3416 28.7235 34.9493 30.4391 35.8034 31.6008C37.8659 34.4056 39.1285 37.4457 39.646 40.8533C39.7426 41.4894 39.822 42.1789 39.8224 42.3857L39.8231 42.7616H49.9115H60L59.9348 40.0148C59.8461 36.277 59.5519 34.911 58.2718 32.2947C55.9204 27.4886 51.4238 24.2146 45.9722 23.3394C44.9048 23.1681 42.4783 23.1064 41.2028 23.2184ZM16.2001 26.5743C10.1579 27.0641 4.76764 30.6115 2.00978 35.9132C0.591841 38.6388 0 41.1992 0 44.6076V46H18.2132H36.4264L36.4263 44.9302C36.4258 39.2524 34.6149 34.8496 30.8112 31.2782C26.9455 27.6487 22.1181 26.0945 16.2001 26.5743Z" fill="#09201C"/>
</svg>
